<mxfile host="app.diagrams.net" agent="Mozilla/5.0 (Windows NT 10.0; Win64; x64) AppleWebKit/537.36 (KHTML, like Gecko) Chrome/132.0.0.0 Safari/537.36" version="26.0.14">
  <diagram id="W4wejenk-8XXydwgL0-5" name="PÃ¡gina-1">
    <mxGraphModel dx="927" dy="685" grid="1" gridSize="10" guides="1" tooltips="1" connect="1" arrows="1" fold="1" page="1" pageScale="1" pageWidth="827" pageHeight="1169" math="0" shadow="0">
      <root>
        <mxCell id="0" />
        <mxCell id="1" parent="0" />
        <mxCell id="OnFX-Q3bMlPpnylVqk5K-1" value="Aluno" style="shape=umlActor;verticalLabelPosition=bottom;verticalAlign=top;html=1;outlineConnect=0;" vertex="1" parent="1">
          <mxGeometry x="99" y="170" width="30" height="60" as="geometry" />
        </mxCell>
        <mxCell id="OnFX-Q3bMlPpnylVqk5K-2" value="Sistema" style="shape=umlActor;verticalLabelPosition=bottom;verticalAlign=top;html=1;outlineConnect=0;" vertex="1" parent="1">
          <mxGeometry x="699" y="280" width="30" height="60" as="geometry" />
        </mxCell>
        <mxCell id="OnFX-Q3bMlPpnylVqk5K-3" value="Professor" style="shape=umlActor;verticalLabelPosition=bottom;verticalAlign=top;html=1;outlineConnect=0;" vertex="1" parent="1">
          <mxGeometry x="99" y="334" width="30" height="60" as="geometry" />
        </mxCell>
        <mxCell id="OnFX-Q3bMlPpnylVqk5K-6" value="&lt;font style=&quot;font-size: 8px;&quot;&gt;consultar alunos&amp;nbsp;&lt;/font&gt;&lt;div&gt;&lt;font style=&quot;font-size: 8px;&quot;&gt;da disciplina&lt;/font&gt;&lt;/div&gt;" style="ellipse;whiteSpace=wrap;html=1;" vertex="1" parent="1">
          <mxGeometry x="259" y="340" width="80" height="40" as="geometry" />
        </mxCell>
        <mxCell id="OnFX-Q3bMlPpnylVqk5K-7" value="&lt;font style=&quot;font-size: 8px;&quot;&gt;encerrar matricula&lt;/font&gt;" style="ellipse;whiteSpace=wrap;html=1;" vertex="1" parent="1">
          <mxGeometry x="569" y="365" width="80" height="40" as="geometry" />
        </mxCell>
        <mxCell id="OnFX-Q3bMlPpnylVqk5K-8" value="&lt;font style=&quot;font-size: 8px;&quot;&gt;gerar curriculo do semestre&lt;/font&gt;" style="ellipse;whiteSpace=wrap;html=1;" vertex="1" parent="1">
          <mxGeometry x="489" y="345" width="80" height="40" as="geometry" />
        </mxCell>
        <mxCell id="OnFX-Q3bMlPpnylVqk5K-10" value="&lt;font style=&quot;font-size: 8px;&quot;&gt;cancelar disciplina&lt;/font&gt;" style="ellipse;whiteSpace=wrap;html=1;" vertex="1" parent="1">
          <mxGeometry x="369" y="270" width="70" height="30" as="geometry" />
        </mxCell>
        <mxCell id="OnFX-Q3bMlPpnylVqk5K-11" value="&lt;font style=&quot;font-size: 8px;&quot;&gt;matricular&lt;/font&gt;" style="ellipse;whiteSpace=wrap;html=1;" vertex="1" parent="1">
          <mxGeometry x="150" y="120" width="80" height="40" as="geometry" />
        </mxCell>
        <mxCell id="OnFX-Q3bMlPpnylVqk5K-12" value="&lt;font style=&quot;font-size: 8px;&quot;&gt;cancelar matricula&lt;/font&gt;" style="ellipse;whiteSpace=wrap;html=1;" vertex="1" parent="1">
          <mxGeometry x="169" y="210" width="80" height="40" as="geometry" />
        </mxCell>
        <mxCell id="OnFX-Q3bMlPpnylVqk5K-15" value="&lt;font style=&quot;font-size: 8px;&quot;&gt;atualizar disciplina&lt;/font&gt;" style="ellipse;whiteSpace=wrap;html=1;" vertex="1" parent="1">
          <mxGeometry x="519" y="215" width="70" height="30" as="geometry" />
        </mxCell>
        <mxCell id="OnFX-Q3bMlPpnylVqk5K-16" value="&lt;font style=&quot;font-size: 8px;&quot;&gt;atualizar aluno&lt;/font&gt;" style="ellipse;whiteSpace=wrap;html=1;" vertex="1" parent="1">
          <mxGeometry x="353" y="304" width="70" height="30" as="geometry" />
        </mxCell>
        <mxCell id="OnFX-Q3bMlPpnylVqk5K-17" value="&lt;font style=&quot;font-size: 8px;&quot;&gt;atualizar professores&lt;/font&gt;" style="ellipse;whiteSpace=wrap;html=1;" vertex="1" parent="1">
          <mxGeometry x="379" y="338" width="70" height="30" as="geometry" />
        </mxCell>
        <mxCell id="OnFX-Q3bMlPpnylVqk5K-19" value="" style="endArrow=none;html=1;rounded=0;entryX=0.683;entryY=0.147;entryDx=0;entryDy=0;entryPerimeter=0;exitX=0;exitY=0.3333333333333333;exitDx=0;exitDy=0;exitPerimeter=0;" edge="1" parent="1" source="OnFX-Q3bMlPpnylVqk5K-2" target="OnFX-Q3bMlPpnylVqk5K-8">
          <mxGeometry width="50" height="50" relative="1" as="geometry">
            <mxPoint x="599" y="300" as="sourcePoint" />
            <mxPoint x="359" y="265" as="targetPoint" />
          </mxGeometry>
        </mxCell>
        <mxCell id="OnFX-Q3bMlPpnylVqk5K-21" value="" style="endArrow=none;html=1;rounded=0;entryX=0.625;entryY=0;entryDx=0;entryDy=0;entryPerimeter=0;exitX=0;exitY=0.3333333333333333;exitDx=0;exitDy=0;exitPerimeter=0;" edge="1" parent="1" source="OnFX-Q3bMlPpnylVqk5K-2" target="OnFX-Q3bMlPpnylVqk5K-7">
          <mxGeometry width="50" height="50" relative="1" as="geometry">
            <mxPoint x="593" y="302" as="sourcePoint" />
            <mxPoint x="522.6104495852962" y="364.56848925751433" as="targetPoint" />
          </mxGeometry>
        </mxCell>
        <mxCell id="OnFX-Q3bMlPpnylVqk5K-22" value="" style="endArrow=none;html=1;rounded=0;exitX=1;exitY=0.3333333333333333;exitDx=0;exitDy=0;exitPerimeter=0;entryX=0;entryY=0.5;entryDx=0;entryDy=0;" edge="1" parent="1" source="OnFX-Q3bMlPpnylVqk5K-1" target="OnFX-Q3bMlPpnylVqk5K-11">
          <mxGeometry width="50" height="50" relative="1" as="geometry">
            <mxPoint x="139" y="330" as="sourcePoint" />
            <mxPoint x="179" y="160" as="targetPoint" />
          </mxGeometry>
        </mxCell>
        <mxCell id="OnFX-Q3bMlPpnylVqk5K-23" value="" style="endArrow=none;html=1;rounded=0;entryX=0;entryY=0.5;entryDx=0;entryDy=0;" edge="1" parent="1">
          <mxGeometry width="50" height="50" relative="1" as="geometry">
            <mxPoint x="129" y="190" as="sourcePoint" />
            <mxPoint x="168.99999999999818" y="225" as="targetPoint" />
          </mxGeometry>
        </mxCell>
        <mxCell id="OnFX-Q3bMlPpnylVqk5K-24" value="" style="endArrow=none;html=1;rounded=0;exitX=1;exitY=0.3333333333333333;exitDx=0;exitDy=0;exitPerimeter=0;" edge="1" parent="1" source="OnFX-Q3bMlPpnylVqk5K-3" target="OnFX-Q3bMlPpnylVqk5K-6">
          <mxGeometry width="50" height="50" relative="1" as="geometry">
            <mxPoint x="179" y="335" as="sourcePoint" />
            <mxPoint x="295" y="361" as="targetPoint" />
          </mxGeometry>
        </mxCell>
        <mxCell id="OnFX-Q3bMlPpnylVqk5K-27" value="" style="endArrow=none;html=1;rounded=0;entryX=0;entryY=0.3333333333333333;entryDx=0;entryDy=0;entryPerimeter=0;exitX=1;exitY=0.5;exitDx=0;exitDy=0;" edge="1" parent="1" source="OnFX-Q3bMlPpnylVqk5K-28" target="OnFX-Q3bMlPpnylVqk5K-2">
          <mxGeometry width="50" height="50" relative="1" as="geometry">
            <mxPoint x="169" y="325" as="sourcePoint" />
            <mxPoint x="259" y="325" as="targetPoint" />
          </mxGeometry>
        </mxCell>
        <mxCell id="OnFX-Q3bMlPpnylVqk5K-28" value="&lt;font style=&quot;font-size: 8px;&quot;&gt;gerenciar&lt;/font&gt;" style="ellipse;whiteSpace=wrap;html=1;" vertex="1" parent="1">
          <mxGeometry x="599" y="265" width="80" height="40" as="geometry" />
        </mxCell>
        <mxCell id="OnFX-Q3bMlPpnylVqk5K-29" value="" style="endArrow=openThin;dashed=1;html=1;rounded=0;entryX=1;entryY=0.5;entryDx=0;entryDy=0;endFill=0;" edge="1" parent="1" source="OnFX-Q3bMlPpnylVqk5K-28" target="OnFX-Q3bMlPpnylVqk5K-10">
          <mxGeometry width="50" height="50" relative="1" as="geometry">
            <mxPoint x="369" y="285" as="sourcePoint" />
            <mxPoint x="279" y="265" as="targetPoint" />
          </mxGeometry>
        </mxCell>
        <mxCell id="OnFX-Q3bMlPpnylVqk5K-34" value="&lt;font style=&quot;font-size: 6px;&quot;&gt;extend&lt;/font&gt;" style="edgeLabel;html=1;align=center;verticalAlign=middle;resizable=0;points=[];" vertex="1" connectable="0" parent="OnFX-Q3bMlPpnylVqk5K-29">
          <mxGeometry x="0.0214" y="2" relative="1" as="geometry">
            <mxPoint x="-1" y="-3" as="offset" />
          </mxGeometry>
        </mxCell>
        <mxCell id="OnFX-Q3bMlPpnylVqk5K-30" value="" style="endArrow=none;dashed=1;html=1;rounded=0;entryX=1;entryY=1;entryDx=0;entryDy=0;exitX=0;exitY=0;exitDx=0;exitDy=0;" edge="1" parent="1" source="OnFX-Q3bMlPpnylVqk5K-28" target="OnFX-Q3bMlPpnylVqk5K-15">
          <mxGeometry width="50" height="50" relative="1" as="geometry">
            <mxPoint x="299" y="315" as="sourcePoint" />
            <mxPoint x="459" y="260" as="targetPoint" />
          </mxGeometry>
        </mxCell>
        <mxCell id="OnFX-Q3bMlPpnylVqk5K-35" value="&lt;font style=&quot;font-size: 6px;&quot;&gt;extend&lt;/font&gt;" style="edgeLabel;html=1;align=center;verticalAlign=middle;resizable=0;points=[];" vertex="1" connectable="0" parent="OnFX-Q3bMlPpnylVqk5K-30">
          <mxGeometry x="0.0244" y="5" relative="1" as="geometry">
            <mxPoint x="-2" y="-7" as="offset" />
          </mxGeometry>
        </mxCell>
        <mxCell id="OnFX-Q3bMlPpnylVqk5K-31" value="" style="endArrow=openThin;dashed=1;html=1;rounded=0;exitX=0;exitY=0.75;exitDx=0;exitDy=0;entryX=1;entryY=0.5;entryDx=0;entryDy=0;exitPerimeter=0;endFill=0;" edge="1" parent="1" source="OnFX-Q3bMlPpnylVqk5K-28" target="OnFX-Q3bMlPpnylVqk5K-16">
          <mxGeometry width="50" height="50" relative="1" as="geometry">
            <mxPoint x="387" y="316" as="sourcePoint" />
            <mxPoint x="469" y="270" as="targetPoint" />
          </mxGeometry>
        </mxCell>
        <mxCell id="OnFX-Q3bMlPpnylVqk5K-36" value="&lt;font style=&quot;font-size: 6px;&quot;&gt;extend&lt;/font&gt;" style="edgeLabel;html=1;align=center;verticalAlign=middle;resizable=0;points=[];" vertex="1" connectable="0" parent="OnFX-Q3bMlPpnylVqk5K-31">
          <mxGeometry x="-0.19" y="1" relative="1" as="geometry">
            <mxPoint x="-14" y="2" as="offset" />
          </mxGeometry>
        </mxCell>
        <mxCell id="OnFX-Q3bMlPpnylVqk5K-32" value="" style="endArrow=openThin;dashed=1;html=1;rounded=0;exitX=0;exitY=1;exitDx=0;exitDy=0;entryX=1;entryY=0.5;entryDx=0;entryDy=0;endFill=0;" edge="1" parent="1" source="OnFX-Q3bMlPpnylVqk5K-28" target="OnFX-Q3bMlPpnylVqk5K-17">
          <mxGeometry width="50" height="50" relative="1" as="geometry">
            <mxPoint x="397" y="326" as="sourcePoint" />
            <mxPoint x="479" y="280" as="targetPoint" />
          </mxGeometry>
        </mxCell>
        <mxCell id="OnFX-Q3bMlPpnylVqk5K-37" value="&lt;font style=&quot;font-size: 6px;&quot;&gt;extend&lt;/font&gt;" style="edgeLabel;html=1;align=center;verticalAlign=middle;resizable=0;points=[];" vertex="1" connectable="0" parent="OnFX-Q3bMlPpnylVqk5K-32">
          <mxGeometry x="0.0666" y="-3" relative="1" as="geometry">
            <mxPoint as="offset" />
          </mxGeometry>
        </mxCell>
        <mxCell id="OnFX-Q3bMlPpnylVqk5K-39" value="&lt;font style=&quot;font-size: 8px;&quot;&gt;selecionar disciplina&lt;/font&gt;" style="ellipse;whiteSpace=wrap;html=1;" vertex="1" parent="1">
          <mxGeometry x="579" y="100" width="60" height="40" as="geometry" />
        </mxCell>
        <mxCell id="OnFX-Q3bMlPpnylVqk5K-40" value="&lt;font style=&quot;font-size: 8px;&quot;&gt;verificar se hÃ¡ vagas na disciplina&lt;/font&gt;" style="ellipse;whiteSpace=wrap;html=1;" vertex="1" parent="1">
          <mxGeometry x="569" y="160" width="80" height="40" as="geometry" />
        </mxCell>
        <mxCell id="OnFX-Q3bMlPpnylVqk5K-42" value="" style="endArrow=openThin;dashed=1;html=1;rounded=0;endFill=0;entryX=1;entryY=0;entryDx=0;entryDy=0;exitX=0.385;exitY=1.008;exitDx=0;exitDy=0;exitPerimeter=0;" edge="1" parent="1" source="OnFX-Q3bMlPpnylVqk5K-40" target="OnFX-Q3bMlPpnylVqk5K-15">
          <mxGeometry width="50" height="50" relative="1" as="geometry">
            <mxPoint x="556" y="275" as="sourcePoint" />
            <mxPoint x="639" y="245" as="targetPoint" />
          </mxGeometry>
        </mxCell>
        <mxCell id="OnFX-Q3bMlPpnylVqk5K-43" value="&lt;font style=&quot;font-size: 7px;&quot;&gt;include&lt;/font&gt;" style="edgeLabel;html=1;align=center;verticalAlign=middle;resizable=0;points=[];" vertex="1" connectable="0" parent="OnFX-Q3bMlPpnylVqk5K-42">
          <mxGeometry x="-0.1089" y="-1" relative="1" as="geometry">
            <mxPoint y="-1" as="offset" />
          </mxGeometry>
        </mxCell>
        <mxCell id="OnFX-Q3bMlPpnylVqk5K-46" value="" style="endArrow=openThin;dashed=1;html=1;rounded=0;endFill=0;entryX=0.039;entryY=0.336;entryDx=0;entryDy=0;entryPerimeter=0;" edge="1" parent="1" target="OnFX-Q3bMlPpnylVqk5K-86">
          <mxGeometry width="50" height="50" relative="1" as="geometry">
            <mxPoint x="320" y="100" as="sourcePoint" />
            <mxPoint x="360" y="100" as="targetPoint" />
          </mxGeometry>
        </mxCell>
        <mxCell id="OnFX-Q3bMlPpnylVqk5K-47" value="&lt;font style=&quot;font-size: 7px;&quot;&gt;include&lt;/font&gt;" style="edgeLabel;html=1;align=center;verticalAlign=middle;resizable=0;points=[];" vertex="1" connectable="0" parent="OnFX-Q3bMlPpnylVqk5K-46">
          <mxGeometry x="-0.1089" y="-1" relative="1" as="geometry">
            <mxPoint y="-1" as="offset" />
          </mxGeometry>
        </mxCell>
        <mxCell id="OnFX-Q3bMlPpnylVqk5K-79" style="edgeStyle=orthogonalEdgeStyle;rounded=0;orthogonalLoop=1;jettySize=auto;html=1;entryX=1;entryY=0.5;entryDx=0;entryDy=0;exitX=0;exitY=1;exitDx=0;exitDy=0;endArrow=block;endFill=0;" edge="1" parent="1" source="OnFX-Q3bMlPpnylVqk5K-80" target="OnFX-Q3bMlPpnylVqk5K-11">
          <mxGeometry relative="1" as="geometry">
            <mxPoint x="280" y="90" as="sourcePoint" />
            <Array as="points">
              <mxPoint x="280" y="110" />
              <mxPoint x="250" y="110" />
              <mxPoint x="250" y="140" />
            </Array>
          </mxGeometry>
        </mxCell>
        <mxCell id="OnFX-Q3bMlPpnylVqk5K-49" value="&lt;font style=&quot;font-size: 8px;&quot;&gt;verificar se estÃ¡ no periodo&lt;/font&gt;" style="ellipse;whiteSpace=wrap;html=1;" vertex="1" parent="1">
          <mxGeometry x="469" y="105" width="63" height="40" as="geometry" />
        </mxCell>
        <mxCell id="OnFX-Q3bMlPpnylVqk5K-51" value="" style="endArrow=openThin;dashed=1;html=1;rounded=0;exitX=1;exitY=0.5;exitDx=0;exitDy=0;endFill=0;entryX=0;entryY=0.5;entryDx=0;entryDy=0;" edge="1" parent="1" source="OnFX-Q3bMlPpnylVqk5K-12" target="OnFX-Q3bMlPpnylVqk5K-69">
          <mxGeometry width="50" height="50" relative="1" as="geometry">
            <mxPoint x="269" y="165" as="sourcePoint" />
            <mxPoint x="339" y="195" as="targetPoint" />
          </mxGeometry>
        </mxCell>
        <mxCell id="OnFX-Q3bMlPpnylVqk5K-52" value="&lt;font style=&quot;font-size: 7px;&quot;&gt;include&lt;/font&gt;" style="edgeLabel;html=1;align=center;verticalAlign=middle;resizable=0;points=[];" vertex="1" connectable="0" parent="OnFX-Q3bMlPpnylVqk5K-51">
          <mxGeometry x="-0.1089" y="-1" relative="1" as="geometry">
            <mxPoint y="-1" as="offset" />
          </mxGeometry>
        </mxCell>
        <mxCell id="OnFX-Q3bMlPpnylVqk5K-55" value="&lt;font style=&quot;font-size: 8px;&quot;&gt;atualizar matricula&lt;/font&gt;" style="ellipse;whiteSpace=wrap;html=1;" vertex="1" parent="1">
          <mxGeometry x="399" y="230" width="70" height="30" as="geometry" />
        </mxCell>
        <mxCell id="OnFX-Q3bMlPpnylVqk5K-57" value="" style="endArrow=openThin;dashed=1;html=1;rounded=0;endFill=0;exitX=1;exitY=0.5;exitDx=0;exitDy=0;entryX=0;entryY=0;entryDx=0;entryDy=0;" edge="1" parent="1" source="OnFX-Q3bMlPpnylVqk5K-69" target="OnFX-Q3bMlPpnylVqk5K-55">
          <mxGeometry width="50" height="50" relative="1" as="geometry">
            <mxPoint x="590" y="195" as="sourcePoint" />
            <mxPoint x="499" y="225" as="targetPoint" />
          </mxGeometry>
        </mxCell>
        <mxCell id="OnFX-Q3bMlPpnylVqk5K-63" value="&lt;font style=&quot;font-size: 6px;&quot;&gt;extend&lt;/font&gt;" style="edgeLabel;html=1;align=center;verticalAlign=middle;resizable=0;points=[];" vertex="1" connectable="0" parent="OnFX-Q3bMlPpnylVqk5K-57">
          <mxGeometry x="0.1204" y="2" relative="1" as="geometry">
            <mxPoint as="offset" />
          </mxGeometry>
        </mxCell>
        <mxCell id="OnFX-Q3bMlPpnylVqk5K-69" value="&lt;font style=&quot;font-size: 8px;&quot;&gt;verificar se estÃ¡ no periodo&lt;/font&gt;" style="ellipse;whiteSpace=wrap;html=1;" vertex="1" parent="1">
          <mxGeometry x="289" y="210" width="80" height="40" as="geometry" />
        </mxCell>
        <mxCell id="OnFX-Q3bMlPpnylVqk5K-73" value="" style="endArrow=openThin;dashed=1;html=1;rounded=0;entryX=1;entryY=0.5;entryDx=0;entryDy=0;exitX=0.021;exitY=0.309;exitDx=0;exitDy=0;exitPerimeter=0;endFill=0;" edge="1" parent="1" source="OnFX-Q3bMlPpnylVqk5K-28" target="OnFX-Q3bMlPpnylVqk5K-55">
          <mxGeometry width="50" height="50" relative="1" as="geometry">
            <mxPoint x="609" y="295" as="sourcePoint" />
            <mxPoint x="449" y="295" as="targetPoint" />
          </mxGeometry>
        </mxCell>
        <mxCell id="OnFX-Q3bMlPpnylVqk5K-74" value="&lt;font style=&quot;font-size: 6px;&quot;&gt;extend&lt;/font&gt;" style="edgeLabel;html=1;align=center;verticalAlign=middle;resizable=0;points=[];" vertex="1" connectable="0" parent="OnFX-Q3bMlPpnylVqk5K-73">
          <mxGeometry x="0.0214" y="2" relative="1" as="geometry">
            <mxPoint x="-1" y="-3" as="offset" />
          </mxGeometry>
        </mxCell>
        <mxCell id="OnFX-Q3bMlPpnylVqk5K-76" value="" style="endArrow=openThin;dashed=1;html=1;rounded=0;endFill=0;entryX=0;entryY=0.5;entryDx=0;entryDy=0;exitX=1;exitY=0.5;exitDx=0;exitDy=0;" edge="1" parent="1" source="OnFX-Q3bMlPpnylVqk5K-49" target="OnFX-Q3bMlPpnylVqk5K-39">
          <mxGeometry width="50" height="50" relative="1" as="geometry">
            <mxPoint x="440" y="110" as="sourcePoint" />
            <mxPoint x="434" y="185" as="targetPoint" />
          </mxGeometry>
        </mxCell>
        <mxCell id="OnFX-Q3bMlPpnylVqk5K-77" value="&lt;font style=&quot;font-size: 6px;&quot;&gt;extend&lt;/font&gt;" style="edgeLabel;html=1;align=center;verticalAlign=middle;resizable=0;points=[];" vertex="1" connectable="0" parent="OnFX-Q3bMlPpnylVqk5K-76">
          <mxGeometry x="0.1204" y="2" relative="1" as="geometry">
            <mxPoint x="-2" as="offset" />
          </mxGeometry>
        </mxCell>
        <mxCell id="OnFX-Q3bMlPpnylVqk5K-80" value="&lt;font style=&quot;font-size: 8px;&quot;&gt;matricular optativa&lt;/font&gt;" style="ellipse;whiteSpace=wrap;html=1;" vertex="1" parent="1">
          <mxGeometry x="273" y="80" width="47" height="40" as="geometry" />
        </mxCell>
        <mxCell id="OnFX-Q3bMlPpnylVqk5K-81" value="&lt;font style=&quot;font-size: 8px;&quot;&gt;matricular obrigatoria&lt;/font&gt;" style="ellipse;whiteSpace=wrap;html=1;" vertex="1" parent="1">
          <mxGeometry x="273" y="140" width="47" height="40" as="geometry" />
        </mxCell>
        <mxCell id="OnFX-Q3bMlPpnylVqk5K-82" value="" style="endArrow=none;html=1;rounded=0;entryX=0;entryY=0.5;entryDx=0;entryDy=0;" edge="1" parent="1" target="OnFX-Q3bMlPpnylVqk5K-81">
          <mxGeometry width="50" height="50" relative="1" as="geometry">
            <mxPoint x="250" y="140" as="sourcePoint" />
            <mxPoint x="310" y="190" as="targetPoint" />
            <Array as="points">
              <mxPoint x="250" y="160" />
            </Array>
          </mxGeometry>
        </mxCell>
        <mxCell id="OnFX-Q3bMlPpnylVqk5K-86" value="&lt;font style=&quot;font-size: 8px;&quot;&gt;verificar se estÃ¡ atingiu o limite&lt;/font&gt;" style="ellipse;whiteSpace=wrap;html=1;" vertex="1" parent="1">
          <mxGeometry x="356.5" y="105" width="63" height="40" as="geometry" />
        </mxCell>
        <mxCell id="OnFX-Q3bMlPpnylVqk5K-92" value="" style="endArrow=openThin;dashed=1;html=1;rounded=0;endFill=0;exitX=0.5;exitY=1;exitDx=0;exitDy=0;" edge="1" parent="1" source="OnFX-Q3bMlPpnylVqk5K-39" target="OnFX-Q3bMlPpnylVqk5K-40">
          <mxGeometry width="50" height="50" relative="1" as="geometry">
            <mxPoint x="542" y="135" as="sourcePoint" />
            <mxPoint x="589" y="130" as="targetPoint" />
          </mxGeometry>
        </mxCell>
        <mxCell id="OnFX-Q3bMlPpnylVqk5K-97" value="&lt;font style=&quot;font-size: 6px;&quot;&gt;include&lt;/font&gt;" style="text;html=1;align=center;verticalAlign=middle;resizable=0;points=[];autosize=1;strokeColor=none;fillColor=none;" vertex="1" parent="1">
          <mxGeometry x="589" y="130" width="40" height="30" as="geometry" />
        </mxCell>
        <mxCell id="OnFX-Q3bMlPpnylVqk5K-98" value="" style="endArrow=openThin;dashed=1;html=1;rounded=0;endFill=0;exitX=1.005;exitY=0.419;exitDx=0;exitDy=0;exitPerimeter=0;entryX=0.206;entryY=0.906;entryDx=0;entryDy=0;entryPerimeter=0;" edge="1" parent="1" source="OnFX-Q3bMlPpnylVqk5K-81" target="OnFX-Q3bMlPpnylVqk5K-86">
          <mxGeometry width="50" height="50" relative="1" as="geometry">
            <mxPoint x="330" y="110" as="sourcePoint" />
            <mxPoint x="370" y="110" as="targetPoint" />
          </mxGeometry>
        </mxCell>
        <mxCell id="OnFX-Q3bMlPpnylVqk5K-99" value="&lt;font style=&quot;font-size: 7px;&quot;&gt;include&lt;/font&gt;" style="edgeLabel;html=1;align=center;verticalAlign=middle;resizable=0;points=[];" vertex="1" connectable="0" parent="OnFX-Q3bMlPpnylVqk5K-98">
          <mxGeometry x="-0.1089" y="-1" relative="1" as="geometry">
            <mxPoint y="-1" as="offset" />
          </mxGeometry>
        </mxCell>
        <mxCell id="OnFX-Q3bMlPpnylVqk5K-100" value="" style="endArrow=openThin;dashed=1;html=1;rounded=0;endFill=0;exitX=1;exitY=0.5;exitDx=0;exitDy=0;" edge="1" parent="1" source="OnFX-Q3bMlPpnylVqk5K-86">
          <mxGeometry width="50" height="50" relative="1" as="geometry">
            <mxPoint x="542" y="135" as="sourcePoint" />
            <mxPoint x="470" y="125" as="targetPoint" />
          </mxGeometry>
        </mxCell>
        <mxCell id="OnFX-Q3bMlPpnylVqk5K-101" value="&lt;font style=&quot;font-size: 6px;&quot;&gt;extend&lt;/font&gt;" style="edgeLabel;html=1;align=center;verticalAlign=middle;resizable=0;points=[];" vertex="1" connectable="0" parent="OnFX-Q3bMlPpnylVqk5K-100">
          <mxGeometry x="0.1204" y="2" relative="1" as="geometry">
            <mxPoint x="-2" as="offset" />
          </mxGeometry>
        </mxCell>
      </root>
    </mxGraphModel>
  </diagram>
</mxfile>
